<svg xmlns="http://www.w3.org/2000/svg" width="24" height="24" viewBox="0 0 24 24" fill="none">
  <mask id="mask0_2314_3791" style="mask-type:alpha" maskUnits="userSpaceOnUse" x="0" y="0" width="24" height="24">
    <rect width="24" height="24" fill="#1C1B1F"/>
  </mask>
  <g mask="url(#mask0_2314_3791)">
    <path d="M7.03869 16.5388C5.78306 16.5388 4.71274 16.0963 3.82774 15.2114C2.94274 14.3266 2.50024 13.2564 2.50024 12.0009C2.50024 10.7454 2.94274 9.67504 3.82774 8.78979C4.71274 7.90454 5.78306 7.46191 7.03869 7.46191H10.0579C10.2704 7.46191 10.4485 7.53382 10.5923 7.67764C10.736 7.82144 10.8079 7.99964 10.8079 8.21224C10.8079 8.42482 10.736 8.60291 10.5923 8.74649C10.4485 8.89007 10.2704 8.96186 10.0579 8.96186H7.03754C6.19856 8.96186 5.48259 9.25834 4.88964 9.85129C4.29669 10.4442 4.00022 11.1606 4.00022 12.0003C4.00022 12.8401 4.29669 13.5564 4.88964 14.1494C5.48259 14.7423 6.19856 15.0388 7.03754 15.0388H10.0579C10.2704 15.0388 10.4485 15.1107 10.5923 15.2545C10.736 15.3983 10.8079 15.5765 10.8079 15.7891C10.8079 16.0017 10.736 16.1798 10.5923 16.3234C10.4485 16.467 10.2704 16.5388 10.0579 16.5388H7.03869ZM9.00022 12.7503C8.78772 12.7503 8.6096 12.6784 8.46587 12.5346C8.32212 12.3908 8.25024 12.2126 8.25024 12C8.25024 11.7874 8.32212 11.6093 8.46587 11.4657C8.6096 11.3222 8.78772 11.2504 9.00022 11.2504H15.0002C15.2127 11.2504 15.3908 11.3223 15.5346 11.4661C15.6783 11.6099 15.7502 11.7881 15.7502 12.0007C15.7502 12.2133 15.6783 12.3914 15.5346 12.5349C15.3908 12.6785 15.2127 12.7503 15.0002 12.7503H9.00022ZM13.9425 16.5388C13.73 16.5388 13.5519 16.4669 13.4082 16.323C13.2644 16.1792 13.1925 16.001 13.1925 15.7884C13.1925 15.5759 13.2644 15.3978 13.4082 15.2542C13.5519 15.1106 13.73 15.0388 13.9425 15.0388H16.9629C17.8019 15.0388 18.5178 14.7423 19.1108 14.1494C19.7037 13.5564 20.0002 12.8401 20.0002 12.0003C20.0002 11.1606 19.7037 10.4442 19.1108 9.85129C18.5178 9.25834 17.8019 8.96186 16.9629 8.96186H13.9425C13.73 8.96186 13.5519 8.88996 13.4082 8.74616C13.2644 8.60235 13.1925 8.42415 13.1925 8.21156C13.1925 7.99896 13.2644 7.82087 13.4082 7.67729C13.5519 7.53371 13.73 7.46191 13.9425 7.46191H16.9617C18.2174 7.46191 19.2877 7.90436 20.1727 8.78924C21.0577 9.67412 21.5002 10.7443 21.5002 11.9998C21.5002 13.2553 21.0577 14.3256 20.1727 15.2109C19.2877 16.0961 18.2174 16.5388 16.9617 16.5388H13.9425Z" fill="#1C1B1F"/>
  </g>
</svg>